<svg xmlns="http://www.w3.org/2000/svg" fill="none" stroke="currentColor" stroke-width="1.7" stroke-linecap="round" stroke-linejoin="round">
  <symbol id="shield" viewBox="0 0 24 24">
    <path d="M12 2 20 5v6c0 5-3.2 8.7-8 11-4.8-2.3-8-6-8-11V5l8-3Z"/>
    <path d="m8.5 12 2.2 2.2 4.8-5"/>
  </symbol>
  <symbol id="chip" viewBox="0 0 24 24">
    <rect x="6" y="6" width="12" height="12" rx="2"/>
    <path d="M9 10h6M9 14h4M9 2v4M15 2v4M9 18v4M15 18v4M2 9h4M2 15h4M18 9h4M18 15h4"/>
  </symbol>
  <symbol id="firewall" viewBox="0 0 24 24">
    <path d="M3 5h18v14H3zM3 10h18M3 15h18M8 5v5M16 10v5M10 15v4"/>
  </symbol>
  <symbol id="monitor" viewBox="0 0 24 24">
    <rect x="2.5" y="3.5" width="19" height="14" rx="2"/>
    <path d="M8 21h8M12 17.5V21M6 12l3-3 3 2 5-5"/>
  </symbol>
  <symbol id="student" viewBox="0 0 24 24">
    <path d="m2 9 10-5 10 5-10 5L2 9Z"/>
    <path d="M6 11.5V16c3.6 2.7 8.4 2.7 12 0v-4.5M22 9v6"/>
  </symbol>
  <symbol id="employee" viewBox="0 0 24 24">
    <circle cx="12" cy="7" r="4"/>
    <path d="M4 21c.8-5 3.5-7 8-7s7.2 2 8 7M9 14l3 3 3-3"/>
  </symbol>
  <symbol id="admin" viewBox="0 0 24 24">
    <circle cx="9" cy="8" r="4"/>
    <path d="M2 21c.7-4.7 3-7 7-7 1.5 0 2.8.3 3.8.9"/>
    <path d="m17 14 .8 1.7 1.8.2-1.3 1.3.3 1.8-1.6-.8-1.6.8.3-1.8-1.3-1.3 1.8-.2L17 14Z"/>
  </symbol>
  <symbol id="document" viewBox="0 0 24 24">
    <path d="M6 2h8l4 4v16H6zM14 2v5h5M9 12h6M9 16h6"/>
  </symbol>
  <symbol id="database" viewBox="0 0 24 24">
    <ellipse cx="12" cy="5" rx="8" ry="3"/>
    <path d="M4 5v7c0 1.7 3.6 3 8 3s8-1.3 8-3V5M4 12v7c0 1.7 3.6 3 8 3s8-1.3 8-3v-7"/>
  </symbol>
  <symbol id="lock" viewBox="0 0 24 24">
    <rect x="4" y="10" width="16" height="12" rx="2"/>
    <path d="M8 10V7a4 4 0 0 1 8 0v3M12 15v3"/>
  </symbol>
  <symbol id="warning" viewBox="0 0 24 24">
    <path d="M12 3 22 21H2L12 3Z"/>
    <path d="M12 9v5M12 18h.01"/>
  </symbol>
  <symbol id="tool" viewBox="0 0 24 24">
    <path d="M14 6a5 5 0 0 0-7-3l3 3-4 4-3-3a5 5 0 0 0 6 7l7 7 5-5-7-7a5 5 0 0 0 0-3Z"/>
  </symbol>
  <symbol id="target" viewBox="0 0 24 24">
    <circle cx="11" cy="13" r="8"/>
    <circle cx="11" cy="13" r="4"/>
    <path d="m14 10 7-7M16 3h5v5"/>
  </symbol>
  <symbol id="audit" viewBox="0 0 24 24">
    <path d="M5 3h14v18H5zM8 7h8M8 11h8M8 15h5"/>
    <path d="m15 17 1.5 1.5L20 15"/>
  </symbol>
  <symbol id="rag" viewBox="0 0 24 24">
    <path d="M3 5h6v5H3zM15 5h6v5h-6zM9 16h6v5H9z"/>
    <path d="M6 10v3h12v-3M12 13v3"/>
  </symbol>
  <symbol id="output" viewBox="0 0 24 24">
    <path d="M4 4h10v16H4zM14 8h3l3 4-3 4h-3M8 8h2M8 12h2M8 16h2"/>
  </symbol>
  <symbol id="compare" viewBox="0 0 24 24">
    <path d="M8 4 4 8l4 4M4 8h16M16 12l4 4-4 4M20 16H4"/>
  </symbol>
  <symbol id="canary" viewBox="0 0 24 24">
    <path d="M12 3v4M5 6l3 3M19 6l-3 3M4 14h4l2-3 3 6 2-3h5"/>
    <path d="M3 21h18"/>
  </symbol>
  <symbol id="brain" viewBox="0 0 24 24">
    <path d="M9 4a4 4 0 0 0-4 4c0 .6.1 1.1.4 1.6A4.5 4.5 0 0 0 7 18h2M15 4a4 4 0 0 1 4 4c0 .6-.1 1.1-.4 1.6A4.5 4.5 0 0 1 17 18h-2M9 4c0-2 3-2 3 0v16c0 2-3 2-3 0M15 4c0-2-3-2-3 0M7 9h2M15 9h2M7 14h2M15 14h2"/>
  </symbol>
  <symbol id="pdf" viewBox="0 0 24 24">
    <path d="M5 2h9l5 5v15H5zM14 2v6h6"/>
    <path d="M8 17v-5h2a1.5 1.5 0 0 1 0 3H8M13 12v5h1.5a2.5 2.5 0 0 0 0-5H13M18 12h-2v5M16 14h2"/>
  </symbol>
  <symbol id="radar" viewBox="0 0 24 24">
    <circle cx="12" cy="12" r="9"/><circle cx="12" cy="12" r="5"/><path d="m12 12 6-6M12 3v18M3 12h18"/>
  </symbol>
  <symbol id="menu" viewBox="0 0 24 24">
    <path d="M4 7h16M4 12h16M4 17h16"/>
  </symbol>
  <symbol id="close" viewBox="0 0 24 24">
    <path d="m5 5 14 14M19 5 5 19"/>
  </symbol>
  <symbol id="neural" viewBox="0 0 24 24">
    <circle cx="5" cy="5" r="2"/><circle cx="19" cy="6" r="2"/><circle cx="12" cy="12" r="2"/><circle cx="5" cy="19" r="2"/><circle cx="19" cy="18" r="2"/>
    <path d="m7 6 3.5 4.5M17 7l-3.5 3.5M10.5 13.5 7 18M13.5 13.5 17 17"/>
  </symbol>
  <symbol id="arrow" viewBox="0 0 24 24">
    <path d="M5 12h14M14 7l5 5-5 5"/>
  </symbol>
</svg>
